<svg width="45" height="44" viewBox="0 0 45 44" fill="none" xmlns="http://www.w3.org/2000/svg">
<path d="M25.0763 0.924347C23.6307 -0.308116 21.3693 -0.308116 19.9237 0.924347L1.76055 16.4095C0.63675 17.3676 0 18.7007 0 20.0952V38.9277C0 41.729 2.51839 44 5.625 44H11.25C14.3566 44 16.875 41.729 16.875 38.9277V30.4739C16.875 29.5403 17.7145 28.7833 18.75 28.7833H26.25C27.2855 28.7833 28.125 29.5403 28.125 30.4739V38.9277C28.125 41.729 30.6435 44 33.75 44H39.375C42.4815 44 45 41.729 45 38.9277V20.0952C45 18.7007 44.3633 17.3676 43.2394 16.4095L25.0763 0.924347Z" fill="white"/>
</svg>
