<svg width="56" height="52" viewBox="0 0 56 52" fill="none" xmlns="http://www.w3.org/2000/svg">
<foreignObject x="-4" y="-4" width="63.3335" height="59.6295"><div xmlns="http://www.w3.org/1999/xhtml" style="backdrop-filter:blur(2px);clip-path:url(#bgblur_0_104_3_clip_path);height:100%;width:100%"></div></foreignObject><path data-figma-bg-blur-radius="4" d="M1 17.0888C1.00005 13.8431 1.90025 10.6738 3.58169 7.99947C5.26313 5.32512 7.64671 3.27153 10.4176 2.10995C13.1885 0.948357 16.2164 0.73341 19.1014 1.49349C21.9863 2.25358 24.5926 3.95293 26.576 6.36711C26.7157 6.53049 26.8846 6.66073 27.0722 6.74978C27.2598 6.83883 27.4622 6.88478 27.6667 6.88478C27.8712 6.88478 28.0735 6.83883 28.2611 6.74978C28.4487 6.66073 28.6176 6.53049 28.7573 6.36711C30.7345 3.93724 33.3414 2.2236 36.231 1.45429C39.1207 0.684968 42.156 0.896458 44.933 2.06061C47.71 3.22476 50.097 5.28635 51.7763 7.97099C53.4556 10.6556 54.3475 13.836 54.3333 17.0888C54.3333 23.7679 50.3333 28.7554 46.3333 33.1304L31.688 48.6267C31.1911 49.2509 30.5785 49.7523 29.8908 50.0976C29.2031 50.4429 28.4561 50.6242 27.6994 50.6294C26.9428 50.6347 26.1937 50.4637 25.5021 50.128C24.8105 49.7922 24.1921 49.2994 23.688 48.6821L9 33.1304C5 28.7554 1 23.7971 1 17.0888Z" fill="#FF0000" stroke="#FF0000" stroke-width="2" stroke-linecap="round" stroke-linejoin="round"/>
<defs>
<clipPath id="bgblur_0_104_3_clip_path" transform="translate(4 4)"><path d="M1 17.0888C1.00005 13.8431 1.90025 10.6738 3.58169 7.99947C5.26313 5.32512 7.64671 3.27153 10.4176 2.10995C13.1885 0.948357 16.2164 0.73341 19.1014 1.49349C21.9863 2.25358 24.5926 3.95293 26.576 6.36711C26.7157 6.53049 26.8846 6.66073 27.0722 6.74978C27.2598 6.83883 27.4622 6.88478 27.6667 6.88478C27.8712 6.88478 28.0735 6.83883 28.2611 6.74978C28.4487 6.66073 28.6176 6.53049 28.7573 6.36711C30.7345 3.93724 33.3414 2.2236 36.231 1.45429C39.1207 0.684968 42.156 0.896458 44.933 2.06061C47.71 3.22476 50.097 5.28635 51.7763 7.97099C53.4556 10.6556 54.3475 13.836 54.3333 17.0888C54.3333 23.7679 50.3333 28.7554 46.3333 33.1304L31.688 48.6267C31.1911 49.2509 30.5785 49.7523 29.8908 50.0976C29.2031 50.4429 28.4561 50.6242 27.6994 50.6294C26.9428 50.6347 26.1937 50.4637 25.5021 50.128C24.8105 49.7922 24.1921 49.2994 23.688 48.6821L9 33.1304C5 28.7554 1 23.7971 1 17.0888Z"/>
</clipPath></defs>
</svg>
